<svg xmlns="http://www.w3.org/2000/svg" width="100%" height="100%" version="1.1" viewBox="0 0 20 20" x="0px" y="0px"><path d="M14 4V2h-2v2h2z"></path><path fill-rule="evenodd" d="M10.293 8.293 16 14 4 18l-2-2L6 4l2.879 2.879A2.99 2.99 0 0 1 11 6h1v2h-1a.997.997 0 0 0-.707.293zm-3.419-.59-.643 1.93 2.67 4.625 2.254-.751-2.08-3.604-2.201-2.2zM4.498 14.83l.887-2.662 1.58 2.735-2.033.677-.434-.75z" clip-rule="evenodd"></path><path d="M16 5V4h2v1a3 3 0 0 1-3 3h-1V6h1a1 1 0 0 0 1-1zm2 5v2h-2v-2h2z"></path></svg>