<svg xmlns="http://www.w3.org/2000/svg" width="20" height="20" viewBox="0 0 20 20"><path d="M13.39 4.305 12 5l1.404.702a2 2 0 0 1 .894.894L15 8l.702-1.404a2 2 0 0 1 .894-.894L18 5l-1.418-.709a2 2 0 0 1-.881-.869L14.964 2l-.668 1.385a2 2 0 0 1-.907.92z"></path><path fill-rule="evenodd" d="M5.404 9.298a2 2 0 0 0 .894-.894L8 5h1l1.702 3.404a2 2 0 0 0 .894.894L15 11v1l-3.404 1.702a2 2 0 0 0-.894.894L9 18H8l-1.702-3.404a2 2 0 0 0-.894-.894L2 12v-1l3.404-1.702zm2.683 0 .413-.826.413.826a4 4 0 0 0 1.789 1.789l.826.413-.826.413a4 4 0 0 0-1.789 1.789l-.413.826-.413-.826a4 4 0 0 0-1.789-1.789l-.826-.413.826-.413a4 4 0 0 0 1.789-1.789z" clip-rule="evenodd"></path></svg>